<?xml version="1.0" encoding="UTF-8" standalone="no"?>
<!-- Created with Inkscape (http://www.inkscape.org/) -->

<svg
   xmlns:dc="http://purl.org/dc/elements/1.1/"
   xmlns:cc="http://creativecommons.org/ns#"
   xmlns:rdf="http://www.w3.org/1999/02/22-rdf-syntax-ns#"
   xmlns:svg="http://www.w3.org/2000/svg"
   xmlns="http://www.w3.org/2000/svg"
   xmlns:xlink="http://www.w3.org/1999/xlink"
   xmlns:sodipodi="http://sodipodi.sourceforge.net/DTD/sodipodi-0.dtd"
   xmlns:inkscape="http://www.inkscape.org/namespaces/inkscape"
   width="360"
   height="60"
   viewBox="0 0 360 60.000001"
   id="svg2"
   version="1.1"
   inkscape:version="0.91 r"
   sodipodi:docname="bio_bring.svg">
  <sodipodi:namedview
     id="base"
     pagecolor="#ffffff"
     bordercolor="#666666"
     borderopacity="1.0"
     inkscape:pageopacity="0.0"
     inkscape:pageshadow="2"
     inkscape:zoom="1.0201539"
     inkscape:cx="29.157808"
     inkscape:cy="6.3436847"
     inkscape:document-units="px"
     inkscape:current-layer="layer4"
     showgrid="false"
     inkscape:snap-global="true"
     units="px"
     inkscape:snap-intersection-paths="true"
     inkscape:object-nodes="true">
    <sodipodi:guide
       position="0.18470715,59.359654"
       orientation="59.235718,0"
       id="guide130988" />
    <sodipodi:guide
       position="59.420471,0.12393516"
       orientation="-59.235718,0"
       id="guide130992" />
    <sodipodi:guide
       position="120.1847,59.617854"
       orientation="59.235718,0"
       id="guide130996" />
    <sodipodi:guide
       position="179.42046,0.38213516"
       orientation="-59.235718,0"
       id="guide131000" />
    <sodipodi:guide
       position="240.18471,59.617854"
       orientation="59.235718,0"
       id="guide131004" />
    <sodipodi:guide
       position="299.42047,0.38213516"
       orientation="-59.235718,0"
       id="guide131008" />
    <sodipodi:guide
       position="359.42049,0.38213516"
       orientation="-59.235718,0"
       id="guide131016" />
  </sodipodi:namedview>
  <defs
     id="defs4">
    <clipPath
       id="clipoutline1"
       clipPathUnits="userSpaceOnUse">
      <path
         id="outline1"
         d="M 60.3,27.4 C 40.4,27.4 24.4,35 24.4,44 l 0,56.8 c 0,9.2 16,16.5 35.9,16.5 C 80,117.3 96,110 96,100.8 L 96,44 C 96,35 80,27.4 60.3,27.4 Z"
         inkscape:connector-curvature="0" />
    </clipPath>
    <clipPath
       id="clipoutline2"
       clipPathUnits="userSpaceOnUse">
      <path
         id="outline2"
         d="M 59.6,18 C 36.3,18 17.6,27.8 17,39.7 l 0,9.8 C 17,62 36.5,72 60.7,72 85,72 104.4,62 104.4,49.5 l 0,-9.7 C 104.4,27.6 84.6,18 60.7,18 l -1.1,0 z"
         inkscape:connector-curvature="0" />
    </clipPath>
    <linearGradient
       id="WhiteTransparent-676-418">
      <stop
         id="stop121110"
         style="stop-color:#d9c2a2;stop-opacity:1"
         offset="0" />
      <stop
         id="stop121112"
         style="stop-color:#d0a2d9;stop-opacity:0"
         offset="1" />
    </linearGradient>
    <linearGradient
       id="WhiteTransparent-174-567">
      <stop
         id="stop121116"
         style="stop-color:#d9c7a2;stop-opacity:1"
         offset="0" />
      <stop
         id="stop121118"
         style="stop-color:#d0a2d9;stop-opacity:0"
         offset="1" />
    </linearGradient>
    <linearGradient
       id="BlackTransparent-757-495">
      <stop
         id="stop121122"
         style="stop-color:#0a0a0a"
         offset="0" />
      <stop
         id="stop121124"
         style="stop-color:#0a0a0a;stop-opacity:0"
         offset="1" />
    </linearGradient>
    <linearGradient
       id="WhiteTransparent-280-878">
      <stop
         id="stop121128"
         style="stop-color:#d9c2a2;stop-opacity:1"
         offset="0" />
      <stop
         id="stop121130"
         style="stop-color:#d0a2d9;stop-opacity:0"
         offset="1" />
    </linearGradient>
    <linearGradient
       id="WhiteTransparent-995-748">
      <stop
         id="stop121134"
         style="stop-color:#d9b3a2;stop-opacity:1"
         offset="0" />
      <stop
         id="stop121136"
         style="stop-color:#d0a2d9;stop-opacity:0"
         offset="1" />
    </linearGradient>
    <linearGradient
       id="BlackTransparent-265-587">
      <stop
         id="stop121140"
         style="stop-color:#0a0a0a"
         offset="0" />
      <stop
         id="stop121142"
         style="stop-color:#0a0a0a;stop-opacity:0"
         offset="1" />
    </linearGradient>
    <linearGradient
       id="WhiteTransparent-71-989">
      <stop
         id="stop121146"
         style="stop-color:#d0a2d9"
         offset="0" />
      <stop
         id="stop121148"
         style="stop-color:#d0a2d9;stop-opacity:0"
         offset="1" />
    </linearGradient>
    <linearGradient
       id="BlackTransparent-245-761">
      <stop
         id="stop121152"
         style="stop-color:#0a0a0a"
         offset="0" />
      <stop
         id="stop121154"
         style="stop-color:#0a0a0a;stop-opacity:0"
         offset="1" />
    </linearGradient>
    <filter
       inkscape:collect="always"
       style="color-interpolation-filters:sRGB"
       id="filter122763"
       x="-0.11041644"
       width="1.2208329"
       y="-0.10568707"
       height="1.211374">
      <feGaussianBlur
         inkscape:collect="always"
         stdDeviation="3.3138788"
         id="feGaussianBlur122765" />
    </filter>
    <linearGradient
       inkscape:collect="always"
       x1="248.07001"
       y1="224.94"
       gradientTransform="matrix(1.6732,0,0,1.1476,-203.14,-178.37)"
       x2="230.58"
       gradientUnits="userSpaceOnUse"
       y2="244.74001"
       id="linearGradient9495">
      <stop
         offset="0"
         style="stop-color:#ff2a26"
         id="stop7092" />
      <stop
         offset="1"
         style="stop-color:#96000d"
         id="stop7094" />
    </linearGradient>
    <linearGradient
       inkscape:collect="always"
       xlink:href="#linearGradient9495"
       id="linearGradient125788"
       gradientUnits="userSpaceOnUse"
       gradientTransform="matrix(1.6732,0,0,1.1476,-203.14,-178.37)"
       x1="248.07001"
       y1="224.94"
       x2="230.58"
       y2="244.74001" />
    <linearGradient
       inkscape:collect="always"
       xlink:href="#WhiteTransparent-676-418"
       id="linearGradient126129"
       gradientUnits="userSpaceOnUse"
       gradientTransform="translate(160.57834,365.48635)"
       x1="96"
       x2="60" />
    <linearGradient
       inkscape:collect="always"
       xlink:href="#WhiteTransparent-174-567"
       id="linearGradient126131"
       gradientUnits="userSpaceOnUse"
       gradientTransform="translate(160.57834,365.48635)"
       x1="22"
       x2="46" />
    <linearGradient
       inkscape:collect="always"
       xlink:href="#BlackTransparent-757-495"
       id="linearGradient126133"
       gradientUnits="userSpaceOnUse"
       gradientTransform="translate(160.57834,365.48635)"
       x1="13"
       y1="56"
       x2="13"
       y2="102" />
    <linearGradient
       inkscape:collect="always"
       xlink:href="#WhiteTransparent-280-878"
       id="linearGradient126135"
       gradientUnits="userSpaceOnUse"
       gradientTransform="translate(160.57834,365.48635)"
       y1="52"
       x2="0"
       y2="16" />
    <linearGradient
       inkscape:collect="always"
       xlink:href="#WhiteTransparent-995-748"
       id="linearGradient126137"
       gradientUnits="userSpaceOnUse"
       gradientTransform="translate(160.57834,365.48635)"
       y1="71"
       x2="0"
       y2="59" />
    <linearGradient
       inkscape:collect="always"
       xlink:href="#BlackTransparent-265-587"
       id="linearGradient126139"
       gradientUnits="userSpaceOnUse"
       gradientTransform="translate(160.57834,365.48635)"
       y1="35"
       x2="0"
       y2="48" />
    <linearGradient
       inkscape:collect="always"
       xlink:href="#WhiteTransparent-71-989"
       id="linearGradient126141"
       gradientUnits="userSpaceOnUse"
       gradientTransform="translate(160.57834,365.48635)"
       y1="21"
       x2="0"
       y2="30" />
    <linearGradient
       inkscape:collect="always"
       xlink:href="#BlackTransparent-245-761"
       id="linearGradient126143"
       gradientUnits="userSpaceOnUse"
       gradientTransform="matrix(0.9,0,0,0.9,164.07834,374.48635)"
       x1="76"
       y1="105.3"
       x2="76"
       y2="86" />
  </defs>
  <metadata
     id="metadata7">
    <rdf:RDF>
      <cc:Work
         rdf:about="">
        <dc:format>image/svg+xml</dc:format>
        <dc:type
           rdf:resource="http://purl.org/dc/dcmitype/StillImage" />
        <dc:title />
      </cc:Work>
    </rdf:RDF>
  </metadata>
  <g
     inkscape:groupmode="layer"
     id="layer4"
     inkscape:label="Bring"
     style="display:inline">
    <g
       id="g130175"
       transform="translate(115.21782,-1260.8211)">
      <g
         id="g125738"
         inkscape:label="Layer 1"
         transform="matrix(0.6315732,-0.63136366,0.63136366,0.6315732,45.11997,1341.8299)">
        <path
           inkscape:connector-curvature="0"
           id="path125740"
           sodipodi:nodetypes="cccccccc"
           style="color:#000000;fill:url(#linearGradient125788);stroke:#6b1a11;stroke-width:1.75;stroke-linejoin:round"
           d="m 200.81,78.34 0,5.348 -20.89,0 0,15.299 20.89,0 0,5.383 13.87,-13.033 -13.87,-12.997 z" />
      </g>
      <g
         id="g125990"
         transform="matrix(0.54728515,0,0,0.54728515,58.27492,1019.5099)">
        <g
           transform="translate(-3.9568934,97.791793)"
           id="g125992">
          <path
             inkscape:connector-curvature="0"
             id="path125994"
             d="m 283.74187,366.05323 c -11.10793,0.28497 -23.66082,3.15522 -30.25195,12.80274 -2.97475,2.79153 -0.27467,7.53922 -1.10547,11.1289 0.20535,4.03299 2.19878,7.96216 5.41992,10.41797 0.8424,10.04104 -1.72478,20.65177 1.08594,30.37109 6.96933,9.84156 20.74416,10.15648 31.62957,9.62854 8.21116,-0.68005 18.79128,-3.12227 21.87043,-11.74572 1.58175,-9.09616 -0.82455,-18.4626 0.6289,-27.5586 2.43864,-2.84801 5.71766,-5.62124 5.70117,-9.89453 0.39247,-6.06377 0.50096,-13.12789 -5.0332,-16.99219 -8.20742,-6.85394 -19.64086,-8.12478 -29.94531,-8.1582 z"
             style="color:#000000;clip-rule:nonzero;display:inline;overflow:visible;visibility:visible;opacity:1;isolation:auto;mix-blend-mode:normal;color-interpolation:sRGB;color-interpolation-filters:linearRGB;solid-color:#000000;solid-opacity:1;fill:#000000;fill-opacity:1;fill-rule:evenodd;stroke:#235108;stroke-width:0.83828312;stroke-linecap:butt;stroke-linejoin:miter;stroke-miterlimit:4;stroke-dasharray:none;stroke-dashoffset:0;stroke-opacity:1;filter:url(#filter122763);color-rendering:auto;image-rendering:auto;shape-rendering:auto;text-rendering:auto;enable-background:accumulate" />
        </g>
        <g
           transform="matrix(0.71153115,0,0,0.71153115,123.076,191.27626)"
           id="g125996">
          <use
             class="outline-big"
             xlink:href="#outline1"
             id="use125998"
             x="0"
             y="0"
             width="100%"
             height="100%"
             transform="translate(160.57834,365.48635)" />
          <use
             class="outline-small stroke-aluminium5"
             xlink:href="#outline1"
             id="use126000"
             style="opacity:1;fill:none;stroke:#0b0000;stroke-width:8px"
             x="0"
             y="0"
             width="100%"
             height="100%"
             transform="translate(160.57834,365.48635)" />
          <path
             inkscape:connector-curvature="0"
             id="path126002"
             style="fill:#4a2f27"
             d="m 220.97834,395.48635 c -19.8,0 -35.7,7.6 -35.7,16.7 l 0,54 c 0,9.1 15.9,16.3 35.7,16.3 19.6,0 35.6,-7.2 35.6,-16.3 l 0,-54 c 0,-9.1 -16,-16.7 -35.6,-16.7 z" />
          <path
             inkscape:connector-curvature="0"
             id="path126004"
             style="opacity:0.5;fill:url(#linearGradient126129)"
             d="m 220.97834,393.08635 c -19.9,0 -19.9,89.4 0,89.4 19.6,0 35.6,-7.1 35.6,-16.3 l 0,-56.7 c 0,-9 -16,-16.4 -35.6,-16.4 z"
             class="specularity" />
          <path
             inkscape:connector-curvature="0"
             id="path126006"
             style="opacity:0.75;fill:url(#linearGradient126131)"
             class="high-specularity"
             d="m 202.97834,423.48635 -17.7,-8.3 0,51.3 c 0,5 7.3,11.7 17.8,13.7 l -0.1,-56.7 z" />
          <path
             inkscape:connector-curvature="0"
             id="path126008"
             style="opacity:0.5;fill:url(#linearGradient126133)"
             d="m 185.17834,423.18635 0,17.7 c 20.9,15.1 50.9,15.6 71.4,0 l 0,-17.7 c -20,16.3 -51,14.8 -71.4,0 z"
             class="shade" />
          <use
             height="100%"
             width="100%"
             y="0"
             x="0"
             style="opacity:0.3;fill:none;stroke:#ceac8d;stroke-width:9px;stroke-linejoin:round;stroke-opacity:1"
             id="use126010"
             xlink:href="#outline1"
             class="stroke-highlight"
             clip-path="url(#clipoutline1)"
             transform="translate(160.57834,365.48635)" />
          <use
             class="outline-big"
             xlink:href="#outline2"
             id="use126012"
             x="0"
             y="0"
             width="100%"
             height="100%"
             transform="translate(160.57834,365.48635)" />
          <use
             class="outline-small stroke-aluminium5"
             xlink:href="#outline2"
             id="use126014"
             style="opacity:1;fill:none;stroke:#0b0000;stroke-width:8px"
             x="0"
             y="0"
             width="100%"
             height="100%"
             transform="translate(160.57834,365.48635)" />
          <path
             style="fill:#c27a57"
             inkscape:connector-curvature="0"
             id="path126016"
             d="m 221.27834,383.48635 c 24.3,0 43.7,10 43.7,22 l 0,3.5 c 0,12.5 -19.4,22.5 -43.7,22.5 -24.2,0 -43.7,-10 -43.7,-22.5 l 0,-3.5 c 0,-12 19.5,-22 43.7,-22 z"
             class="aluminium2" />
          <path
             style="fill:#4a2f27"
             inkscape:connector-curvature="0"
             id="path126018"
             d="m 221.27834,424.48635 c 24.3,0 43.7,-6.4 43.7,-19.6 l 0,10.1 c 0,12.5 -19.4,22.5 -43.7,22.5 -24.2,0 -43.7,-10 -43.7,-22.5 l 0,-10.1 c 0,7.9 19.5,19.6 43.7,19.6 z"
             class="aluminium4" />
          <path
             inkscape:connector-curvature="0"
             id="path126020"
             style="opacity:0.5;fill:url(#linearGradient126135)"
             d="m 177.05134,402.01135 c 0,11.4 27.282,17.545 44.227,17.545 17.652,0 43.7,-3.745 43.7,-17.545 l 0,3.359 c 0,16.05 -29.4,19.25 -43.7,19.25 -13.8,0 -44.319,-8.339 -44.319,-20.339" />
          <path
             inkscape:connector-curvature="0"
             id="path126022"
             style="opacity:0.5;fill:url(#linearGradient126137)"
             d="m 221.57834,424.48635 c -27.3,0 -56.5,-12.4 -34.5,3.7 8.2,6 20.2,9 34.5,9 14.4,0 26,-3 34.7,-9 21.3,-15.2 -7.7,-3.7 -34.7,-3.7 z"
             class="specularity" />
          <use
             height="100%"
             width="100%"
             y="0"
             x="0"
             style="opacity:0.3;fill:none;stroke:#d9b3a2;stroke-width:9px;stroke-linejoin:round;stroke-opacity:1"
             id="use126024"
             xlink:href="#outline2"
             class="stroke-highlight"
             clip-path="url(#clipoutline2)"
             transform="translate(160.57834,365.48635)" />
          <path
             class="shade"
             d="m 201.97834,401.08635 40.1,0 c 4.5,0 4.5,6.9 0,6.9 l -40.1,0 c -4.4,0 -4.6,-6.9 0,-6.9 z"
             style="opacity:0.5;fill:url(#linearGradient126139)"
             id="path126026"
             inkscape:connector-curvature="0" />
          <path
             d="m 222.17834,384.78635 c -18.6,0 -20.1,6 -20.1,12.3 l 0,6.8 c 0,2.9 7.5,2.3 7.5,0 l 0,-2.4 c 0,-4.4 4.5,-5.5 12.6,-5.5 8.1,0 12.4,1.1 12.4,5.5 l 0,2.4 c 0,2.3 7.6,2.3 7.6,0 l 0,-6.8 c 0,-6.3 -1.6,-12.3 -20,-12.3 z"
             style="fill:#0a0a0a"
             id="path126028"
             inkscape:connector-curvature="0" />
          <path
             d="m 222.17834,386.78635 c -8.2,0 -14.6,1.2 -14.6,6.1 l 29,0 c 0,-4.9 -6.3,-6.1 -14.4,-6.1 z"
             class="specularity"
             style="opacity:0.5;fill:url(#linearGradient126141)"
             id="path126030"
             inkscape:connector-curvature="0" />
          <path
             inkscape:connector-curvature="0"
             id="path126032"
             style="opacity:0.5;fill:#0a0a0a"
             d="m 192.57834,449.08635 0,15.4 c 0,6.9 8,7 8,0 l 0,-15.4 c 0,-5.3 -8,-5.7 -8,0 z m 48,0 0,15.4 c 1.9,5.9 7.5,4.7 8,0 l 0,-15.4 c 0,-5 -7.8,-4.9 -8,0 z m -32.6,4.1 0,18.3 c 0,6.3 8.5,5.7 8.6,0 l 0,-18.3 c 0,-5.4 -8.5,-5.7 -8.6,0 z m 16.6,0 0,18.3 c 0,6.5 8.9,5.8 9,0 l 0,-18.3 c -1.4,-6.1 -8.2,-5.5 -9,0 z" />
          <path
             inkscape:connector-curvature="0"
             id="path126034"
             style="opacity:0.5;fill:url(#linearGradient126143)"
             d="m 248.57834,456.48635 c 0,4.2 -8,4 -8,0 l 0,7.4 c 0,5.6 8,6.3 8,0 l 0,-7.4 z m -56,0 0,7.4 c 0,8 8,7.6 8,0 l 0,-7.4 c 0,4.9 -8,4.6 -8,0 z m 24,6.8 c 0,5.1 -8.6,4.2 -8.6,0 l 0,7.9 c 0,6.9 8.5,5.9 8.6,0 l 0,-7.9 z m 17,0 c 0,5.8 -9,4.9 -9,0 l 0,7.9 c 0,7.1 9,6.3 9,0 l 0,-7.9 z" />
        </g>
      </g>
    </g>
  </g>
  <style
     id="style33"
     type="text/css">.specularity {opacity:0.5;}
	.high-specularity {opacity:0.75;}
	.low-specularity {opacity:0.25;}
	.full-specularity {opacity:1;}
	.shade{opacity:0.5;}
	.black {fill:#000000;}
	.white {fill:#ffffff;}
	.outline-big {stroke-width:16;stroke:none;opacity:0.;fill:none;}
	.outline-small {stroke-width:8px;stroke:black;opacity:1;fill:none;}
	.stroke-highlight {fill:none;stroke:white;opacity:0.3;stroke-width:9px;stroke-linejoin:round;}
				.base-shadow 	{fill:black;opacity:0.4;}
	.stroke-aluminium5	{stroke:#555753;}
	.aluminium1	{fill:#eeeeec;}
	.aluminium2	{fill:#d3d7cf;}
	.aluminium3	{fill:#babdb6;}
	.aluminium4	{fill:#888a85;}
	.aluminium5	{fill:#555753;}
	.aluminium6	{fill:#2e3436;}</style>
</svg>
