<?xml version="1.0" encoding="UTF-8" standalone="no"?>
<!-- Created with Inkscape (http://www.inkscape.org/) -->

<svg
   xmlns:dc="http://purl.org/dc/elements/1.1/"
   xmlns:cc="http://creativecommons.org/ns#"
   xmlns:rdf="http://www.w3.org/1999/02/22-rdf-syntax-ns#"
   xmlns:svg="http://www.w3.org/2000/svg"
   xmlns="http://www.w3.org/2000/svg"
   xmlns:xlink="http://www.w3.org/1999/xlink"
   xmlns:sodipodi="http://sodipodi.sourceforge.net/DTD/sodipodi-0.dtd"
   xmlns:inkscape="http://www.inkscape.org/namespaces/inkscape"
   width="360"
   height="60"
   viewBox="0 0 360 60.000001"
   id="svg2"
   version="1.1"
   inkscape:version="0.91 r"
   sodipodi:docname="gelb_bring.svg">
  <sodipodi:namedview
     id="base"
     pagecolor="#ffffff"
     bordercolor="#666666"
     borderopacity="1.0"
     inkscape:pageopacity="0.0"
     inkscape:pageshadow="2"
     inkscape:zoom="1.0201539"
     inkscape:cx="29.157808"
     inkscape:cy="6.3436847"
     inkscape:document-units="px"
     inkscape:current-layer="layer4"
     showgrid="false"
     inkscape:snap-global="true"
     units="px"
     inkscape:snap-intersection-paths="true"
     inkscape:object-nodes="true">
    <sodipodi:guide
       position="0.18470715,59.359654"
       orientation="59.235718,0"
       id="guide130988" />
    <sodipodi:guide
       position="59.420471,0.12393516"
       orientation="-59.235718,0"
       id="guide130992" />
    <sodipodi:guide
       position="120.1847,59.617854"
       orientation="59.235718,0"
       id="guide130996" />
    <sodipodi:guide
       position="179.42046,0.38213516"
       orientation="-59.235718,0"
       id="guide131000" />
    <sodipodi:guide
       position="240.18471,59.617854"
       orientation="59.235718,0"
       id="guide131004" />
    <sodipodi:guide
       position="299.42047,0.38213516"
       orientation="-59.235718,0"
       id="guide131008" />
    <sodipodi:guide
       position="359.42049,0.38213516"
       orientation="-59.235718,0"
       id="guide131016" />
  </sodipodi:namedview>
  <defs
     id="defs4">
    <filter
       inkscape:collect="always"
       style="color-interpolation-filters:sRGB"
       id="filter122763"
       x="-0.11041644"
       width="1.2208329"
       y="-0.10568707"
       height="1.211374">
      <feGaussianBlur
         inkscape:collect="always"
         stdDeviation="3.3138788"
         id="feGaussianBlur122765" />
    </filter>
    <linearGradient
       inkscape:collect="always"
       x1="248.07001"
       y1="224.94"
       gradientTransform="matrix(1.6732,0,0,1.1476,-203.14,-178.37)"
       x2="230.58"
       gradientUnits="userSpaceOnUse"
       y2="244.74001"
       id="linearGradient9495">
      <stop
         offset="0"
         style="stop-color:#ff2a26"
         id="stop7092" />
      <stop
         offset="1"
         style="stop-color:#96000d"
         id="stop7094" />
    </linearGradient>
    <linearGradient
       inkscape:collect="always"
       xlink:href="#linearGradient9495"
       id="linearGradient126299"
       gradientUnits="userSpaceOnUse"
       gradientTransform="matrix(1.6732,0,0,1.1476,-203.14,-178.37)"
       x1="248.07001"
       y1="224.94"
       x2="230.58"
       y2="244.74001" />
  </defs>
  <metadata
     id="metadata7">
    <rdf:RDF>
      <cc:Work
         rdf:about="">
        <dc:format>image/svg+xml</dc:format>
        <dc:type
           rdf:resource="http://purl.org/dc/dcmitype/StillImage" />
        <dc:title />
      </cc:Work>
    </rdf:RDF>
  </metadata>
  <g
     inkscape:groupmode="layer"
     id="layer4"
     inkscape:label="Bring"
     style="display:inline">
    <g
       id="g130095"
       transform="translate(245.70855,-1260.8211)">
      <g
         transform="matrix(0.6315732,-0.63136366,0.63136366,0.6315732,-206.13501,1341.8299)"
         inkscape:label="Layer 1"
         id="g126249">
        <path
           d="m 200.81,78.34 0,5.348 -20.89,0 0,15.299 20.89,0 0,5.383 13.87,-13.033 -13.87,-12.997 z"
           style="color:#000000;fill:url(#linearGradient126299);stroke:#6b1a11;stroke-width:1.75;stroke-linejoin:round"
           sodipodi:nodetypes="cccccccc"
           id="path126251"
           inkscape:connector-curvature="0" />
      </g>
      <g
         transform="matrix(0.65966924,0,0,0.65966924,-388.47359,1021.4158)"
         id="g124911">
        <path
           style="color:#000000;clip-rule:nonzero;display:inline;overflow:visible;visibility:visible;opacity:1;isolation:auto;mix-blend-mode:normal;color-interpolation:sRGB;color-interpolation-filters:linearRGB;solid-color:#000000;solid-opacity:1;fill:#000000;fill-opacity:1;fill-rule:evenodd;stroke:#235108;stroke-width:0.83828312;stroke-linecap:butt;stroke-linejoin:miter;stroke-miterlimit:4;stroke-dasharray:none;stroke-dashoffset:0;stroke-opacity:1;filter:url(#filter122763);color-rendering:auto;image-rendering:auto;shape-rendering:auto;text-rendering:auto;enable-background:accumulate"
           d="m 539.82762,372.64097 c -0.90757,-0.0247 -2.09329,0.0635 -3.55078,0.26563 -0.65576,0.0899 -1.83316,0.33315 -3.51563,0.73437 -0.86876,0.21947 -1.71187,0.26892 -2.53515,0.12891 -2.03668,-0.30928 -3.998,0.24446 -5.88868,1.67383 -0.66294,0.489 -0.95251,1.07152 -0.8496,1.74023 0.15637,0.57304 0.10227,0.92764 -0.14258,1.0625 -0.002,-0.003 -0.004,-0.006 -0.006,-0.01 -0.87115,0.489 -1.35803,0.75913 -1.46094,0.79883 -0.50498,0.35943 -0.76562,0.75969 -0.76562,1.20898 0,0.002 0.002,0.004 0.002,0.006 -4e-5,0.004 -0.002,0.008 -0.002,0.0117 0,0.35943 0.48536,1.00157 1.45703,1.93359 1.53352,1.51658 2.628,2.67818 3.29101,3.47852 0.24066,0.27996 0.44948,0.56293 0.63867,0.84765 -0.25424,0.20085 -0.49392,0.42569 -0.71289,0.69336 -0.1421,0.17995 -0.2505,0.34887 -0.34375,0.51172 -0.34593,-0.0297 -0.78631,-0.0397 -1.29687,-0.0352 -0.15797,-0.002 -0.24666,-0.01 -0.42383,-0.01 0.003,0.006 0.003,0.0134 0.006,0.0195 -0.68184,0.0163 -1.44828,0.0506 -2.38281,0.11914 -2.70919,0.21942 -4.85208,0.59562 -6.43164,1.13477 -1.94573,0.66871 -4.23454,2.04644 -6.88868,4.14453 -2.79711,2.25543 -4.3459,4.13984 -4.66796,5.65429 -0.002,-0.0142 -0.006,-0.0227 -0.008,-0.0371 l 0,0.0664 c -0.30873,1.46907 0.10413,3.16757 1.22657,5.08594 0.18439,0.3079 0.36479,0.56028 0.54687,0.82031 0.0762,0.11011 0.15503,0.24033 0.23047,0.3418 0.0582,0.0771 0.11396,0.13092 0.17187,0.20312 0.47567,0.602 0.94056,1.05985 1.38672,1.3125 -0.35553,0.881 -0.5237,1.33007 -1.20703,2.96875 l 0.004,0.0254 c -0.058,0.13751 -0.0822,0.20091 -0.14258,0.34375 -1.12245,3.29759 -1.62635,6.46418 -1.52344,9.49219 0.10291,2.85875 -0.0552,5.82236 -0.46679,8.89844 -0.2634,2.12872 -0.30618,2.50918 -0.39844,3.2832 -0.02,-0.0696 -0.0431,-0.13457 -0.0625,-0.20508 l -0.14844,1.9336 c 0,2.13988 -0.73839,3.59104 -2.22461,4.34961 -0.54238,0.30659 -0.84821,0.64156 -0.9707,0.99804 0,0 0,0.002 0,0.002 -0.33145,0.73941 0.25006,1.52049 1.75,2.34961 1.53918,1.32415 5.24729,2.87578 11.13086,4.66015 9.19017,2.75844 15.6761,3.81338 19.45508,3.14258 5.76778,-1.02814 10.66762,-2.07473 14.70507,-3.14258 0.7108,-0.17971 2.67231,-0.73554 5.89844,-1.67382 2.18745,-0.62902 3.95494,-1.04357 5.2832,-1.27344 2.19703,-0.35944 3.33895,-1.10973 3.43946,-2.26953 0.0897,-1.20939 -1.47114,-2.22728 -4.67578,-3.05664 -0.29059,-0.6623 -0.62352,-1.40284 -1.08399,-2.37891 -0.86875,-1.91837 -1.42795,-3.68247 -1.68164,-5.2832 -0.15795,-1.15771 -0.33758,-3.72119 -0.54101,-7.6875 -0.15077,-3.78867 -0.40123,-6.64609 -0.75782,-8.56446 -0.20793,-1.42918 -0.29296,-2.10714 -0.44726,-3.21875 -0.25237,-1.85299 -0.54935,-4.0373 -0.70313,-5.15625 -0.0453,-0.26136 -0.0943,-0.46837 -0.14062,-0.71484 -0.33388,-1.97203 -0.69416,-3.45524 -1.08399,-4.41992 -0.0342,-0.012 -0.0643,-0.0137 -0.0977,-0.0234 -0.19312,-0.4619 -0.38919,-0.85692 -0.59375,-1.12695 -0.16273,-0.22415 -0.37609,-0.4844 -0.62696,-0.77539 -0.0207,-0.0244 -0.0334,-0.0416 -0.0547,-0.0664 0,0 0,-0.002 0,-0.002 -0.26207,-0.30628 -0.56553,-0.64198 -0.91016,-1.00977 -0.689,-0.73556 -1.54575,-1.59629 -2.56836,-2.58008 -1.62613,-1.51824 -2.33631,-2.18864 -3.02344,-2.83789 0.12735,-0.2495 0.21832,-0.54461 0.26367,-0.89844 0.10291,-1.06993 -0.0454,-1.81375 -0.45703,-2.21289 -0.78674,-0.68696 -1.15027,-0.98077 -1.52539,-1.28515 0.45436,-0.30994 0.94081,-0.61726 1.48242,-0.91602 0,0 0.002,0 0.002,0 0.33098,-0.18254 0.67949,-0.3626 1.04297,-0.54101 0.61032,-0.26333 1.81502,-0.73375 3.31836,-1.30274 0.50096,-0.18941 0.90392,-0.3439 1.5039,-0.5664 0.24352,-0.0779 0.45073,-0.19639 0.62305,-0.35547 0,0 0.002,0 0.002,0 0.34878,-0.32007 0.55248,-0.8072 0.61328,-1.45508 0.0152,-0.15523 0.0211,-0.32011 0.0195,-0.49414 -5e-5,-0.005 8e-5,-0.0107 0,-0.0156 -0.002,-0.18014 -0.0131,-0.37022 -0.0332,-0.57031 -0.0455,-0.57885 -0.35359,-1.06961 -0.91601,-1.46875 -0.71798,-0.35943 -1.28153,-0.65558 -1.6836,-0.875 -0.002,0.007 -0.006,0.014 -0.008,0.0215 -0.19092,-0.11592 -0.3938,-0.23511 -0.5332,-0.33985 -0.40207,-0.26957 -0.78422,-0.84806 -1.15039,-1.73828 -0.40207,-1.02188 -0.88724,-1.82725 -1.44727,-2.4082 -0.72037,-0.79827 -1.68304,-1.26443 -2.91797,-1.40235 -0.24052,-0.0329 -0.51193,-0.0543 -0.81445,-0.0625 z M 522.2866,389.1859 c -1.2637,0.50497 -2.66519,1.21496 -4.23047,2.17578 -2.19702,1.37922 -3.65638,2.51353 -4.36718,3.41211 -0.3542,0.48899 -0.79405,1.20038 -1.3086,2.13867 -0.45711,0.76066 -0.9634,1.44521 -1.52343,2.07422 -0.67018,0.74122 -1.2639,1.56874 -1.7793,2.48047 -0.001,0.003 -0.002,0.005 -0.004,0.008 -0.24911,0.44126 -0.47937,0.90156 -0.6914,1.38281 -0.14603,0.32969 -0.27197,0.68074 -0.40039,1.0293 -0.11573,-0.0464 -0.23202,-0.10688 -0.34766,-0.18555 -0.0397,-0.0273 -0.0794,-0.0529 -0.11914,-0.084 -0.0349,-0.0271 -0.0706,-0.0676 -0.10547,-0.0977 -0.15026,-0.13066 -0.2992,-0.27687 -0.44922,-0.46289 -0.0108,-0.0132 -0.0224,-0.0295 -0.0332,-0.043 -0.17095,-0.21659 -0.34161,-0.46483 -0.51172,-0.75391 -6.1e-4,0.003 -10e-4,0.005 -0.002,0.008 -0.49396,-0.82017 -0.70817,-1.51961 -0.61524,-2.08008 0.0574,-0.48899 0.81456,-1.49444 2.30078,-3.01367 1.32826,-1.37922 2.70164,-2.6691 4.13282,-3.87696 1.22535,-1.01979 2.43169,-1.78054 3.5996,-2.26953 0.76586,-0.35944 2.16816,-0.80905 4.2168,-1.33984 0.75815,-0.19161 1.50094,-0.35385 2.23828,-0.50195 z"
           id="path123446"
           inkscape:connector-curvature="0" />
        <path
           id="path100"
           style="fill:#000000;fill-rule:evenodd"
           d="m 547.85744,379.11298 c 0.16035,1.60073 -0.2513,2.5641 -1.22536,2.87338 -2.40045,0.89022 -4.00873,1.51714 -4.82244,1.86821 -2.90782,1.42938 -4.77697,2.98832 -5.59068,4.68726 -0.81371,1.6885 -2.78577,2.34259 -5.89942,1.933 -1.57956,-0.17136 -3.08492,-0.5287 -4.5161,-1.06785 0.20582,-0.40123 0.30873,-0.955 0.30873,-1.66551 -0.055,-1.33952 -0.61746,-2.63724 -1.69204,-3.8869 -0.66294,-0.79827 -1.75666,-1.95807 -3.29075,-3.4773 -0.97167,-0.92993 -1.4575,-1.57566 -1.4575,-1.933 0,-0.44929 0.26087,-0.85052 0.76585,-1.20995 0.10291,-0.0397 0.58874,-0.30928 1.45989,-0.79828 1.32587,2.27781 2.55123,4.01646 3.67367,5.21596 1.22296,1.28936 2.32626,2.04793 3.30032,2.27781 1.32588,0.35107 2.0654,-0.47437 2.21378,-2.4826 0.30873,-2.93816 0.45951,-5.38732 0.45951,-7.35375 0.97167,0.48899 1.57956,1.96643 1.84042,4.41559 0.20583,1.69686 0.76824,2.78352 1.68247,3.27252 0.76824,0.44929 1.40246,0.33435 1.91702,-0.33436 0.66532,-0.84007 1.75905,-1.93509 3.29074,-3.27251 1.84282,-1.55894 2.86236,-2.11481 3.06578,-1.67388 0.15078,0.4493 -0.26086,1.24966 -1.22296,2.40737 -1.48622,1.64879 -2.27121,2.5641 -2.37412,2.74381 -0.76824,1.24757 -0.16035,1.28936 1.83085,0.12957 1.79495,-1.01979 3.02031,-2.69366 3.68324,-5.01117 0.40207,0.21942 0.96449,0.51407 1.68247,0.8735 0.56242,0.39914 0.87116,0.89023 0.91663,1.46908 z"
           inkscape:connector-curvature="0" />
        <path
           id="path144"
           style="fill:#000000;fill-rule:evenodd"
           d="m 547.85744,379.1297 c 0.15077,1.59864 -0.2513,2.56201 -1.22536,2.87338 -2.40045,0.89022 -4.00873,1.51714 -4.82244,1.86821 -2.9174,1.42938 -4.77697,2.98831 -5.59068,4.68517 -0.82329,1.69059 -2.78577,2.34468 -5.89942,1.93509 -1.57956,-0.17136 -3.0945,-0.53079 -4.5161,-1.06785 0.19625,-0.40123 0.29916,-0.95501 0.29916,-1.66551 -0.0455,-1.33952 -0.60789,-2.63724 -1.68247,-3.8869 l -1.29955,-1.46908 c 0.30874,-0.84843 1.12245,-0.7105 2.45071,0.40123 2.29994,1.82851 4.13079,3.16594 5.5141,4.01437 0.45951,-1.38758 0.99082,-2.56201 1.60828,-3.54209 0.7108,-1.06994 1.17749,-1.3625 1.37374,-0.87351 0.20582,0.62901 0.64618,0.98009 1.30912,1.06994 0.76824,0.0481 1.65614,-0.31136 2.67567,-1.06994 1.2804,-1.01978 1.3546,-0.46601 0.23215,1.67388 -0.25129,0.39913 0.3566,0.21942 1.84282,-0.53915 1.52212,-0.84007 2.93415,-1.77836 4.20737,-2.8086 1.48622,-1.10964 2.40045,-2.07301 2.75705,-2.87337 0.45712,0.31137 0.72038,0.73558 0.76585,1.27473 z"
           inkscape:connector-curvature="0" />
        <path
           id="path146"
           style="fill:#e4cc08;fill-opacity:1;fill-rule:evenodd"
           d="m 541.80964,383.87274 c -2.90782,1.42728 -4.77697,2.98622 -5.59068,4.68516 -0.81371,1.69686 -2.78577,2.34259 -5.89942,1.93509 -1.57956,-0.17136 -3.08492,-0.53079 -4.5161,-1.06994 0.20582,-0.40123 0.30873,-0.955 0.30873,-1.66551 -0.055,-1.33952 -0.61746,-2.63724 -1.69204,-3.8848 -0.66294,-0.80037 -1.75666,-1.96017 -3.29075,-3.47731 -0.97167,-0.93202 -1.4575,-1.57566 -1.4575,-1.93509 0,-0.44929 0.26087,-0.85052 0.76585,-1.20786 0.10291,-0.0418 0.58874,-0.31137 1.45989,-0.80037 0.25129,-0.13165 0.30634,-0.49108 0.14838,-1.06994 -0.10291,-0.66871 0.18668,-1.24965 0.84962,-1.73865 1.89068,-1.42937 3.85316,-1.98315 5.88984,-1.67387 0.82328,0.14001 1.66571,0.0899 2.53447,-0.12957 1.68247,-0.40122 2.85996,-0.64572 3.51572,-0.73558 1.94333,-0.26957 3.40323,-0.33436 4.36532,-0.2027 1.23493,0.13792 2.19703,0.60393 2.9174,1.4022 0.56003,0.58095 1.04586,1.38758 1.44793,2.40946 0.36617,0.89022 0.7491,1.46908 1.15117,1.73865 0.41164,0.30928 1.04585,0.66872 1.91461,1.06994 0.72038,0.39914 1.12245,0.93829 1.22536,1.607 0.16035,1.60074 -0.2513,2.5641 -1.22536,2.87338 -2.40045,0.89022 -4.00873,1.51923 -4.82244,1.87031 z"
           inkscape:connector-curvature="0" />
        <path
           id="path148"
           style="fill:#858585;fill-opacity:1;fill-rule:evenodd"
           d="m 524.65467,386.01889 c 0.41164,0.0815 0.60789,0.21942 0.60789,0.39913 0.055,0.13166 0.0263,0.24659 -0.0742,0.33436 -2.09411,0.17345 -4.29114,0.55587 -6.5815,1.13472 -2.04864,0.53079 -3.45109,0.98008 -4.21694,1.33952 -1.16792,0.48899 -2.37413,1.24965 -3.59948,2.26944 -1.43118,1.20786 -2.80492,2.49723 -4.13318,3.87645 -1.48622,1.51923 -2.2425,2.52439 -2.29994,3.01338 -0.10291,0.62065 0.15078,1.4043 0.76824,2.34259 0.66294,1.01978 1.32588,1.51087 1.99121,1.46908 0.97166,-0.0397 5.7965,-2.18795 14.47211,-6.41547 -0.45951,0.84007 -0.96449,1.58402 -1.53409,2.20258 -0.45711,0.58094 -2.65414,1.91837 -6.58149,4.00809 -4.03027,2.14824 -6.45944,3.14295 -7.27316,3.01339 -0.97166,-0.17972 -1.9912,-1.1598 -3.06578,-2.93816 -1.12244,-1.91837 -1.53408,-3.61732 -1.22535,-5.08639 0.30873,-1.51924 1.85957,-3.41253 4.67406,-5.68197 2.65414,-2.09809 4.9445,-3.47731 6.89023,-4.14602 1.57956,-0.53915 3.72153,-0.9153 6.43072,-1.13472 2.45071,-0.17972 4.03027,-0.17972 4.75064,0 z"
           inkscape:connector-curvature="0" />
        <path
           id="path150"
           style="fill:#717171;fill-opacity:1;fill-rule:evenodd"
           d="m 520.43773,386.01889 c 2.19702,-0.13793 3.59948,-0.13793 4.21694,0 0.40207,0.0815 0.60789,0.21942 0.60789,0.39913 0.055,0.13166 0.0263,0.24659 -0.0742,0.33436 -2.09411,0.17345 -4.29114,0.55587 -6.5815,1.13472 -2.04864,0.53079 -3.45109,0.98008 -4.21694,1.33952 -1.17749,0.48899 -2.37413,1.24965 -3.59948,2.26944 -1.43118,1.20786 -2.81449,2.49723 -4.13318,3.87645 -1.48622,1.51923 -2.25207,2.52439 -2.29994,3.01338 -0.10291,0.62065 0.15078,1.4043 0.76824,2.34259 0.66294,1.01978 1.32588,1.51087 1.99121,1.46908 0.97166,-0.0397 5.7965,-2.18795 14.47211,-6.41547 -0.45951,0.84007 -0.97406,1.58402 -1.53409,2.20258 -0.45711,0.58094 -2.65414,1.91837 -6.58149,4.00809 -4.03745,2.14824 -6.45944,3.14295 -7.28273,3.01339 -0.96209,-0.17972 -1.9912,-1.1598 -3.05621,-2.93816 -1.12244,-1.91837 -1.53408,-3.61732 -1.22535,-5.08639 l 0,-0.0648 c 0.19625,1.24757 0.56002,1.76373 1.065,1.53386 0.45951,-0.21942 0.79457,-0.66871 1.00039,-1.33742 0.15078,-0.44093 1.19664,-1.56103 3.14237,-3.33939 2.24249,-1.96016 3.71914,-3.28087 4.43952,-3.94331 0.91662,-0.80873 2.01034,-1.3625 3.29074,-1.67387 0.76824,-0.17972 2.03907,-0.39914 3.83402,-0.66872 1.68247,-0.30928 2.27122,-0.80036 1.75667,-1.46907 z"
           inkscape:connector-curvature="0" />
        <path
           id="path152"
           style="fill:#4a4741;fill-opacity:1;fill-rule:evenodd"
           d="m 520.0548,397.98467 c -0.45711,0.58094 -2.65414,1.91837 -6.58149,4.00809 -4.03027,2.14824 -6.45944,3.14295 -7.27316,3.01339 -0.97166,-0.13165 -2.01992,-1.1598 -3.14236,-3.07817 0.96449,0.44929 1.60828,-0.0397 1.91701,-1.46908 0.7108,1.20787 1.43118,1.78045 2.14198,1.73866 0.97166,-0.0397 5.7965,-2.18795 14.47211,-6.41547 -0.45951,0.84007 -0.97406,1.58402 -1.53409,2.20258 z"
           inkscape:connector-curvature="0" />
        <path
           id="path154"
           style="fill:#858585;fill-opacity:1;fill-rule:evenodd"
           d="m 524.65467,386.01889 c 0.41164,0.0815 0.60789,0.21942 0.60789,0.39913 0.055,0.13166 0.0263,0.24659 -0.0742,0.33436 l -3.44152,0.53079 c 0.56002,-0.57885 0.73952,-1.04486 0.53369,-1.40221 1.32588,0 2.11326,0.0481 2.37413,0.13793 z"
           inkscape:connector-curvature="0" />
        <path
           id="path156"
           style="fill:#858585;fill-opacity:1;fill-rule:evenodd"
           d="m 530.77666,389.16184 c -4.64534,-1.06994 -6.99075,-1.82852 -7.03861,-2.27781 -0.0551,-0.39914 0.15077,-0.89022 0.60789,-1.46908 0.51455,-0.629 1.12244,-1.06994 1.84282,-1.33951 2.75705,-1.06785 5.51409,-1.37922 8.26396,-0.93829 1.5317,0.26958 2.96287,0.84843 4.29114,1.73865 0.30634,0.22778 1.00039,0.80873 2.06539,1.73866 0.41165,0.39914 0.56003,1.14308 0.45712,2.21302 -0.14839,1.15771 -0.73713,1.75537 -1.75666,1.80343 -1.22536,0.0899 -4.13318,-0.39913 -8.73305,-1.46907 z"
           inkscape:connector-curvature="0" />
        <path
           id="path158"
           style="fill:#43403b;fill-opacity:1;fill-rule:evenodd"
           d="m 537.75305,384.28023 c 0.66293,0.35108 1.68247,1.13472 3.0562,2.33423 0.41165,0.39914 0.56003,1.14308 0.45712,2.21302 -0.14839,1.15771 -0.73713,1.75537 -1.75666,1.80343 -1.22536,0.0899 -4.13318,-0.39913 -8.73305,-1.46907 -4.64534,-1.06994 -6.99075,-1.82852 -7.04819,-2.27781 -0.0455,-0.21942 0.0574,-0.55586 0.30874,-1.00307 0.86875,0 1.71119,-0.24658 2.5249,-0.73558 1.02671,-0.57886 2.32626,-0.95501 3.90821,-1.13472 1.79495,-0.17972 3.31707,0.0167 4.59747,0.60393 1.17031,0.48899 1.96488,0.71051 2.37652,0.66035 0.40207,-0.0397 0.50498,-0.37406 0.30874,-0.99471 z"
           inkscape:connector-curvature="0" />
        <path
           id="path424"
           style="fill:#e4cc08;fill-opacity:1;fill-rule:evenodd"
           d="m 550.08318,403.2675 c 0.25129,1.82851 0.63661,4.6371 1.1392,8.42369 0.36617,1.91837 0.61746,4.77503 0.76824,8.5637 0.20582,3.9663 0.38292,6.5304 0.54088,7.68811 0.25368,1.60909 0.81371,3.36446 1.68247,5.28283 1.07697,2.2778 1.68486,3.69673 1.84282,4.27767 0.3542,1.24757 -0.38293,2.18795 -2.22575,2.80651 -0.97167,0.31972 -2.50575,0.56422 -4.59986,0.74394 -0.40207,0.0397 -2.0654,0.62065 -4.97322,1.73865 -3.21417,1.24966 -6.50491,2.17959 -9.88182,2.8086 -6.28234,1.1995 -13.45258,0.57885 -21.5203,-1.87867 -5.35614,-1.55894 -9.21649,-2.87337 -11.56429,-3.94331 -1.73033,-0.75858 -2.72833,-1.51715 -2.98201,-2.27572 -0.20582,-0.62065 0.12205,-1.17651 0.99081,-1.66551 1.48622,-0.76066 2.22574,-2.21302 2.22574,-4.35081 0,-0.0899 0.20583,-1.76373 0.6079,-5.01326 0.41164,-3.07608 0.56959,-6.03931 0.46668,-8.89806 -0.10291,-3.02801 0.40207,-6.19395 1.52452,-9.49154 1.2804,-3.03011 2.01753,-4.85862 2.22335,-5.48554 0.7108,-2.13988 1.7399,-3.94331 3.06817,-5.41239 0.56003,-0.62901 1.06501,-1.31444 1.52212,-2.0751 0.51455,-0.93829 0.95492,-1.6488 1.30912,-2.13779 0.7108,-0.89858 2.1707,-2.03331 4.36772,-3.41253 2.39327,-1.46907 4.43952,-2.40736 6.12199,-2.80859 2.50576,-0.53706 4.77697,-1.3625 6.81604,-2.47215 2.3454,-0.26957 4.59986,0.21942 6.73945,1.46908 0.97167,0.57886 2.22574,1.60073 3.75026,3.07817 0.51216,0.489 1.84042,1.73865 3.9824,3.73852 2.04625,1.96644 3.41998,3.43551 4.14036,4.4156 0.7108,0.93828 1.34741,3.02801 1.91701,6.2859 z"
           inkscape:connector-curvature="0" />
        <path
           id="path246"
           style="fill:#000000;fill-opacity:0.10493828;fill-rule:evenodd"
           d="m 545.40912,402.91707 c 0.56003,2.44707 0.79457,6.79788 0.69166,13.04408 -0.10291,4.09795 -0.28002,7.7299 -0.54328,10.89793 -0.14838,1.1995 -0.0191,2.6038 0.38293,4.2108 0.26326,1.06994 0.87115,3.2746 1.84282,6.62025 0.30873,1.24966 0.45711,2.44917 0.45711,3.60896 l -0.76585,0.20271 c -0.0479,-0.88814 -0.38292,-2.56201 -0.99081,-5.01953 -0.72038,-2.93815 -1.14877,-4.79174 -1.30912,-5.54196 -0.56003,-2.98831 -0.66294,-8.71834 -0.29916,-17.19218 0.15078,-2.98831 -0.055,-6.64534 -0.61746,-10.96271 -0.60789,-4.54725 -1.40246,-7.82812 -2.37413,-9.82799 -0.81371,-1.69895 -1.53409,-2.97159 -2.13958,-3.81167 -1.07698,-1.42937 -2.40285,-2.65395 -3.98241,-3.6821 1.01714,0.57886 1.91462,1.19951 2.68286,1.87031 2.44832,2.31751 4.17865,4.99445 5.20537,8.02246 0.15077,0.40959 0.73952,2.92353 1.75905,7.56064 z"
           inkscape:connector-curvature="0" />
        <path
           id="path290"
           style="fill:#000000;fill-opacity:0.08783785;fill-rule:evenodd"
           d="m 530.85324,391.63463 c -0.4595,-0.66871 -0.56242,-1.47744 -0.29916,-2.40737 0.76585,-2.2778 0.88791,-3.63403 0.38293,-4.08123 -0.20582,-0.22151 -0.9262,-0.0669 -2.15155,0.46392 -1.42879,0.71886 -2.40045,1.18487 -2.90543,1.40429 -0.56242,0.26958 -1.40246,0.75857 -2.52491,1.47744 -1.2804,0.7523 -2.27121,1.31444 -2.99159,1.66551 -1.01953,0.53915 -1.4575,0.57886 -1.29954,0.13792 0.14838,-0.4472 0.63661,-0.97799 1.44793,-1.607 l 3.45109,-2.26944 c 2.09412,-0.57885 3.95369,-1.29772 5.59069,-2.13779 2.3454,-0.26958 4.59986,0.21942 6.73945,1.46908 0.97167,0.57885 2.22574,1.59864 3.75026,3.07608 0.51216,0.49108 1.84042,1.73865 3.9824,3.73852 2.04625,1.96852 3.41998,3.4376 4.14036,4.41768 0.7108,0.93829 1.34741,3.02802 1.91701,6.2859 0.25129,1.82851 0.63661,4.63502 1.1392,8.42369 0.36617,1.91837 0.61746,4.77503 0.76824,8.56162 0.20582,3.96839 0.38292,6.5304 0.54088,7.6902 0.25368,1.60909 0.81371,3.36446 1.68247,5.28074 1.07697,2.2778 1.68486,3.69881 1.84282,4.27767 0.3542,1.24966 -0.38293,2.18794 -2.22575,2.80859 -0.97167,0.31764 -2.50575,0.56423 -4.59986,0.74395 -0.40207,0.0397 -2.0654,0.61856 -4.97322,1.73865 -3.21417,1.24757 -6.50491,2.17959 -9.88182,2.8065 -6.28234,1.2016 -13.45258,0.58095 -21.5203,-1.87657 -5.35614,-1.55894 -9.21649,-2.87338 -11.56429,-3.94332 -1.73033,-0.75857 -2.72833,-1.51714 -2.98201,-2.2778 -0.20582,-0.62065 0.12205,-1.17443 0.99081,-1.66551 1.48622,-0.75857 2.22574,-2.21094 2.22574,-4.35082 l 0.14839,-1.93299 c 1.38331,5.03624 4.26481,7.66512 8.65646,7.88454 3.26442,0.22778 5.77018,0.15464 7.50769,-0.19644 1.73034,-0.35943 3.82445,-1.23085 6.27277,-2.61216 2.35737,-1.33742 3.93693,-3.25579 4.75064,-5.74675 0.76585,-2.3175 0.69166,-4.63501 -0.22497,-6.95461 -0.72037,-1.87658 -2.71157,-3.28087 -5.9736,-4.2108 l -4.67406,-0.80873 c 1.57956,0 3.55161,-0.31136 5.89941,-0.92992 1.84043,-0.49945 2.98202,-0.87351 3.44871,-1.14308 0.60789,-0.35108 2.01035,-1.46908 4.20737,-3.33939 2.04625,-1.78672 3.70239,-4.62039 4.98279,-8.49683 1.12244,-3.38745 1.55084,-6.0414 1.29955,-7.95141 -0.25369,-2.09809 -1.29955,-5.0864 -3.14237,-8.96285 -0.66294,0.12957 -1.17749,0.62065 -1.53169,1.46908 -0.20582,0.39914 -0.3566,1.04487 -0.45951,1.94345 -0.10291,0.79827 -0.28001,1.46908 -0.53131,1.99987 -0.41164,0.75857 -0.84243,0.80663 -1.30912,0.13792 z"
           inkscape:connector-curvature="0" />
        <path
           id="path334"
           style="fill:#000000;fill-opacity:0.25925927;fill-rule:evenodd"
           d="m 535.64936,385.4156 c -0.10291,0.17763 -0.38532,0.35734 -0.85201,0.5287 -0.56002,0.22987 -0.91662,0.38451 -1.065,0.47437 -0.30873,0.17972 -0.64618,0.92993 -1.00039,2.26944 -0.30873,1.1598 -0.56002,1.6488 -0.76585,1.46908 -0.19624,-0.12956 -0.22496,-0.50571 -0.0766,-1.13472 0.30873,-1.10964 0.48583,-1.77836 0.5337,-2.00823 0.26087,-1.59864 0.10291,-2.44916 -0.45712,-2.53902 -1.06739,-0.12956 -2.39327,0.2048 -3.9824,1.00516 -1.37613,0.84843 -2.39327,1.49416 -3.0586,1.94345 -1.2804,0.75857 -2.04625,1.10964 -2.29993,1.06785 -0.35421,-0.0481 0.58874,-0.87351 2.83363,-2.47215 1.57956,-0.53915 2.96287,-1.12009 4.13079,-1.73865 2.09411,-0.22987 4.11403,0.15464 6.05976,1.13472 z"
           inkscape:connector-curvature="0" />
        <path
           id="path378"
           style="fill:#000000;fill-opacity:0.24324323;fill-rule:evenodd"
           d="m 552.00976,420.27017 c 0.20343,3.96839 0.38293,6.53039 0.54088,7.69019 0.25369,1.607 0.81372,3.36237 1.68247,5.28074 1.07458,2.27781 1.68247,3.70718 1.84282,4.27768 0.35421,1.24965 -0.38292,2.18794 -2.22574,2.81695 -0.97167,0.30928 -2.49618,0.55378 -4.5903,0.73349 -0.41164,0.0418 -2.07496,0.62065 -4.98279,1.73866 -3.21655,1.24965 -6.5073,2.17958 -9.88181,2.80859 -6.27277,1.1995 -13.45258,0.57886 -21.5203,-1.87657 -5.35614,-1.55894 -9.20931,-2.87338 -11.56429,-3.94332 -3.05621,-1.33952 -3.85077,-2.5641 -2.37413,-3.6821 0.9262,1.24966 3.06579,2.36766 6.4403,3.34774 2.09411,0.57886 5.91856,1.53386 11.48052,2.87338 7.45983,2.09809 12.30381,2.2778 14.55588,0.53915 0.60789,-0.49109 0.45711,-1.00516 -0.45712,-1.54431 -0.97406,-0.53079 -2.2736,-0.75021 -3.90821,-0.66871 -1.38331,0.0502 -3.73111,-0.0648 -7.04818,-0.326 l -4.51611,-0.47437 c 3.11365,-0.0899 6.25362,-0.39914 9.42231,-0.92993 3.36734,-0.53915 6.12439,-1.63207 8.26397,-3.28087 3.17108,-2.44916 4.80569,-6.01632 4.9086,-10.70149 0.15078,-6.41756 1.40246,-15.89447 3.75026,-28.41612 0.41164,-2.22974 1.27082,-3.41252 2.59909,-3.54209 1.88829,1.82852 3.13997,3.15758 3.75744,4.0081 0.7108,0.93829 1.35459,3.03637 1.91701,6.28381 0.25129,1.82851 0.63421,4.63711 1.14877,8.42578 0.35659,1.91837 0.60789,4.77503 0.75866,8.56162 z"
           inkscape:connector-curvature="0" />
        <path
           id="path422"
           style="fill:#000000;fill-opacity:0.23456792;fill-rule:evenodd"
           d="m 546.50285,402.83348 c -0.30874,-0.21942 -0.51456,-0.39914 -0.61747,-0.53706 -0.20582,-0.17136 -0.10291,-0.49109 0.30873,-0.93202 0.30874,-0.35734 0.60789,-0.64363 0.91663,-0.8735 0.15795,-0.17972 0.20582,-0.52871 0.15795,-1.06786 -0.055,-0.44093 0.0742,-0.80036 0.38293,-1.06994 0.29916,-0.30928 0.7108,-0.38451 1.22535,-0.20479 0.50498,1.24966 0.9621,3.34774 1.37374,6.2859 0.20582,1.60909 0.5337,4.01646 1.00039,7.22419 0.35659,1.91837 0.60789,4.77503 0.75866,8.5637 0.20343,3.96631 0.38293,6.5304 0.54088,7.68811 0.25369,1.60073 0.81372,3.36446 1.68247,5.28283 1.07458,2.2778 1.68247,3.69673 1.84282,4.27767 0.35421,1.24757 -0.38292,2.18795 -2.22574,2.80651 -0.97167,0.31973 -2.49618,0.56422 -4.5903,0.74394 -0.41164,0.0397 -2.07496,0.62065 -4.98279,1.73029 -3.21655,1.25802 -6.5073,2.18795 -9.88181,2.81696 -6.27277,1.1995 -13.45258,0.57885 -21.5203,-1.87867 -5.35614,-1.55893 -9.20931,-2.87337 -11.56429,-3.94122 -2.39327,-1.03024 -3.36494,-2.05003 -2.90782,-3.07817 1.9912,2.00823 5.28195,3.4773 9.88181,4.41559 1.01954,0.22151 3.52529,0.9153 7.5077,2.07301 3.0562,0.93202 5.71034,1.49416 7.9648,1.66551 2.9533,0.22987 5.43034,0.2048 7.42154,-0.0648 2.04864,-0.21942 4.03984,-0.75021 5.976,-1.60073 4.33661,-1.82851 6.51448,-3.07608 6.51448,-3.74688 0,-0.88813 -0.7467,-1.33743 -2.22574,-1.33743 l -1.75666,0 3.67367,-0.60393 0.22497,0.39914 c 0.20582,0.22987 0.54327,0.33436 1.00039,0.33436 0.41164,0 0.66293,-0.0899 0.76584,-0.26122 0.10291,-0.35943 0.32788,-0.64363 0.69166,-0.8735 0.96449,-0.71051 1.86196,-1.06786 2.67568,-1.06786 0.20582,0 0.38292,0.0648 0.54087,0.20271 0.15078,0.17136 0.38293,0.28629 0.68209,0.33435 0.51455,0.0899 0.84243,0 1.00038,-0.26957 0.10292,-0.30928 -0.0742,-0.73349 -0.54087,-1.27264 -0.81372,-0.92993 -1.75906,-1.53386 -2.83364,-1.80344 -0.19625,-0.0418 -0.40207,-0.55587 -0.60789,-1.53595 -0.15796,-0.97799 -0.15796,-1.64879 0,-2.00614 0.0479,-0.0899 0.41164,-0.53915 1.07458,-1.33951 0.56242,-0.62065 0.73952,-1.06994 0.5337,-1.33952 -0.15796,-0.17971 -0.35421,-0.30928 -0.61746,-0.39914 -0.2513,-0.0899 -0.47627,-0.31137 -0.68209,-0.66871 -0.26086,-0.40123 -0.44036,-0.82544 -0.54088,-1.27473 l -0.0766,-0.53079 0.76824,-1.06785 c 0.86876,-0.31137 1.40246,-0.87351 1.60588,-1.67388 0.10291,-0.49108 0.0479,-0.89022 -0.14838,-1.1995 -0.36378,-0.49944 -0.5696,-0.87351 -0.61746,-1.14308 0,-0.0418 -0.20582,-0.62065 -0.60789,-1.73865 -0.26087,-0.62065 -0.38293,-1.1598 -0.38293,-1.60073 -0.30873,-0.89859 -0.54088,-1.63208 -0.69165,-2.21303 -0.30873,-1.10964 -0.1771,-1.98315 0.38292,-2.6038 0.50498,-0.48899 0.94534,-0.8735 1.29955,-1.13472 0.15077,-0.13792 0.15077,-0.57885 0,-1.33742 -0.50498,-2.40946 -1.09373,-4.26096 -1.75666,-5.55241 z"
           inkscape:connector-curvature="0" />
        <path
           style="color:#000000;clip-rule:nonzero;display:inline;overflow:visible;visibility:visible;opacity:0.43800001;isolation:auto;mix-blend-mode:normal;color-interpolation:sRGB;color-interpolation-filters:linearRGB;solid-color:#000000;solid-opacity:1;fill:#a4865b;fill-opacity:1;fill-rule:evenodd;stroke:none;stroke-width:3.5999999;stroke-linecap:butt;stroke-linejoin:miter;stroke-miterlimit:4;stroke-dasharray:none;stroke-dashoffset:0;stroke-opacity:1;marker:none;marker-start:none;marker-mid:none;marker-end:none;paint-order:normal;color-rendering:auto;image-rendering:auto;shape-rendering:auto;text-rendering:auto;enable-background:accumulate"
           d="m 529.70411,372.50298 c 0.11283,-0.20459 1.25096,7.98641 1.89044,7.42804 1.35269,-1.18112 1.28426,-8.12105 -1.89044,-7.42804 z"
           id="path118567"
           inkscape:connector-curvature="0" />
        <path
           style="color:#000000;clip-rule:nonzero;display:inline;overflow:visible;visibility:visible;opacity:0.43800001;isolation:auto;mix-blend-mode:normal;color-interpolation:sRGB;color-interpolation-filters:linearRGB;solid-color:#000000;solid-opacity:1;fill:#a4865b;fill-opacity:1;fill-rule:evenodd;stroke:none;stroke-width:3.5999999;stroke-linecap:butt;stroke-linejoin:miter;stroke-miterlimit:4;stroke-dasharray:none;stroke-dashoffset:0;stroke-opacity:1;marker:none;marker-start:none;marker-mid:none;marker-end:none;paint-order:normal;color-rendering:auto;image-rendering:auto;shape-rendering:auto;text-rendering:auto;enable-background:accumulate"
           d="m 542.93722,374.97899 c -2.30163,1.36863 -8.20566,2.73913 -6.14394,4.53936 0.58259,0.5087 4.00037,-1.95284 4.7261,-2.26968 1.1214,-0.48959 3.30828,0.0134 3.30828,0 0,-0.63034 -1.17031,-1.79809 -1.89044,-2.26968 z"
           id="path118569"
           inkscape:connector-curvature="0" />
        <path
           style="color:#000000;clip-rule:nonzero;display:inline;overflow:visible;visibility:visible;opacity:0.43800001;isolation:auto;mix-blend-mode:normal;color-interpolation:sRGB;color-interpolation-filters:linearRGB;solid-color:#000000;solid-opacity:1;fill:#a4865b;fill-opacity:1;fill-rule:evenodd;stroke:none;stroke-width:3.5999999;stroke-linecap:butt;stroke-linejoin:miter;stroke-miterlimit:4;stroke-dasharray:none;stroke-dashoffset:0;stroke-opacity:1;marker:none;marker-start:none;marker-mid:none;marker-end:none;paint-order:normal;color-rendering:auto;image-rendering:auto;shape-rendering:auto;text-rendering:auto;enable-background:accumulate"
           d="m 522.37864,376.62966 c 1.09147,0.46078 5.31962,4.22746 4.72611,4.74569 -0.84518,0.738 -4.93516,-5.47582 -4.72611,-4.74569 z"
           id="path118571"
           inkscape:connector-curvature="0" />
      </g>
    </g>
  </g>
  <style
     id="style33"
     type="text/css">.specularity {opacity:0.5;}
	.high-specularity {opacity:0.75;}
	.low-specularity {opacity:0.25;}
	.full-specularity {opacity:1;}
	.shade{opacity:0.5;}
	.black {fill:#000000;}
	.white {fill:#ffffff;}
	.outline-big {stroke-width:16;stroke:none;opacity:0.;fill:none;}
	.outline-small {stroke-width:8px;stroke:black;opacity:1;fill:none;}
	.stroke-highlight {fill:none;stroke:white;opacity:0.3;stroke-width:9px;stroke-linejoin:round;}
				.base-shadow 	{fill:black;opacity:0.4;}
	.stroke-aluminium5	{stroke:#555753;}
	.aluminium1	{fill:#eeeeec;}
	.aluminium2	{fill:#d3d7cf;}
	.aluminium3	{fill:#babdb6;}
	.aluminium4	{fill:#888a85;}
	.aluminium5	{fill:#555753;}
	.aluminium6	{fill:#2e3436;}</style>
</svg>
